<svg xmlns="http://www.w3.org/2000/svg" viewBox="0 0 32 32">
  <defs>
    <linearGradient id="bg" x1="0%" y1="0%" x2="100%" y2="100%">
      <stop offset="0%" stop-color="#0a0818"/>
      <stop offset="100%" stop-color="#180710"/>
    </linearGradient>
    <linearGradient id="sh" x1="0%" y1="0%" x2="100%" y2="100%">
      <stop offset="0%" stop-color="#4338CA"/>
      <stop offset="100%" stop-color="#9e1b32"/>
    </linearGradient>
  </defs>
  <rect width="32" height="32" rx="6" fill="url(#bg)"/>
  <path d="M16,3 L29,8 L29,19 C29,25.5 23,29.5 16,31 C9,29.5 3,25.5 3,19 L3,8 Z" fill="url(#sh)" opacity=".9"/>
  <line x1="11" y1="12" x2="16" y2="10" stroke="rgba(255,255,255,.4)" stroke-width=".7"/>
  <line x1="16" y1="10" x2="21" y2="12" stroke="rgba(255,255,255,.4)" stroke-width=".7"/>
  <line x1="11" y1="12" x2="13" y2="19" stroke="rgba(255,255,255,.4)" stroke-width=".7"/>
  <line x1="16" y1="10" x2="13" y2="19" stroke="rgba(255,255,255,.3)" stroke-width=".7"/>
  <line x1="16" y1="10" x2="19" y2="19" stroke="rgba(255,255,255,.3)" stroke-width=".7"/>
  <line x1="21" y1="12" x2="19" y2="19" stroke="rgba(255,255,255,.4)" stroke-width=".7"/>
  <line x1="13" y1="19" x2="16" y2="25" stroke="rgba(255,255,255,.4)" stroke-width=".7"/>
  <line x1="19" y1="19" x2="16" y2="25" stroke="rgba(255,255,255,.4)" stroke-width=".7"/>
  <circle cx="11" cy="12" r="1.6" fill="#fff" opacity=".9"/>
  <circle cx="16" cy="10" r="1.6" fill="#fff" opacity=".9"/>
  <circle cx="21" cy="12" r="1.6" fill="#fff" opacity=".9"/>
  <circle cx="13" cy="19" r="1.6" fill="#fff" opacity=".9"/>
  <circle cx="19" cy="19" r="1.6" fill="#fff" opacity=".9"/>
  <circle cx="16" cy="25" r="1.9" fill="#fff"/>
</svg>
